{
    "asset" : {
        "generator" : "Khronos glTF Blender I/O v1.7.33",
        "version" : "2.0"
    },
    "scene" : 0,
    "scenes" : [
        {
            "name" : "Scene",
            "nodes" : [
                0,
                1
            ]
        }
    ],
    "nodes" : [
        {
            "mesh" : 0,
            "name" : "Mesa",
            "rotation" : [
                0,
                -0.5229411125183105,
                0,
                0.8523688316345215
            ],
            "translation" : [
                -0.6756137013435364,
                1.2582833766937256,
                -0.655146598815918
            ]
        },
        {
            "mesh" : 1,
            "name" : "Trees",
            "rotation" : [
                0,
                -0.5229411125183105,
                0,
                0.8523688316345215
            ],
            "translation" : [
                1.8868021965026855,
                0.12490463256835938,
                -3.5438084602355957
            ]
        }
    ],
    "materials" : [
        {
            "alphaCutoff" : 0.5,
            "alphaMode" : "MASK",
            "doubleSided" : true,
            "name" : "Messa 2",
            "pbrMetallicRoughness" : {
                "baseColorTexture" : {
                    "index" : 0
                },
                "metallicFactor" : 0
            }
        },
        {
            "alphaCutoff" : 0.5,
            "alphaMode" : "MASK",
            "doubleSided" : true,
            "name" : "Tree",
            "pbrMetallicRoughness" : {
                "baseColorTexture" : {
                    "index" : 1
                },
                "metallicFactor" : 0,
                "roughnessFactor" : 0.5
            }
        }
    ],
    "meshes" : [
        {
            "name" : "Cube.001",
            "primitives" : [
                {
                    "attributes" : {
                        "POSITION" : 0,
                        "NORMAL" : 1,
                        "TEXCOORD_0" : 2
                    },
                    "indices" : 3,
                    "material" : 0
                }
            ]
        },
        {
            "name" : "Cylinder",
            "primitives" : [
                {
                    "attributes" : {
                        "POSITION" : 4,
                        "NORMAL" : 5,
                        "TEXCOORD_0" : 6
                    },
                    "indices" : 7,
                    "material" : 1
                }
            ]
        }
    ],
    "textures" : [
        {
            "sampler" : 0,
            "source" : 0
        },
        {
            "sampler" : 0,
            "source" : 1
        }
    ],
    "images" : [
        {
            "bufferView" : 4,
            "mimeType" : "image/png",
            "name" : "Mesa 2 Bake Shadow"
        },
        {
            "bufferView" : 9,
            "mimeType" : "image/png",
            "name" : "tree"
        }
    ],
    "accessors" : [
        {
            "bufferView" : 0,
            "componentType" : 5126,
            "count" : 474,
            "max" : [
                8.626676559448242,
                2.965653657913208,
                5.299055576324463
            ],
            "min" : [
                -6.977406978607178,
                -1.2596173286437988,
                -5.003222465515137
            ],
            "type" : "VEC3"
        },
        {
            "bufferView" : 1,
            "componentType" : 5126,
            "count" : 474,
            "type" : "VEC3"
        },
        {
            "bufferView" : 2,
            "componentType" : 5126,
            "count" : 474,
            "type" : "VEC2"
        },
        {
            "bufferView" : 3,
            "componentType" : 5123,
            "count" : 2076,
            "type" : "SCALAR"
        },
        {
            "bufferView" : 5,
            "componentType" : 5126,
            "count" : 1312,
            "max" : [
                7.897739410400391,
                4.977822303771973,
                6.540555477142334
            ],
            "min" : [
                -1.9302129745483398,
                -0.03662727400660515,
                2.5868988037109375
            ],
            "type" : "VEC3"
        },
        {
            "bufferView" : 6,
            "componentType" : 5126,
            "count" : 1312,
            "type" : "VEC3"
        },
        {
            "bufferView" : 7,
            "componentType" : 5126,
            "count" : 1312,
            "type" : "VEC2"
        },
        {
            "bufferView" : 8,
            "componentType" : 5123,
            "count" : 1968,
            "type" : "SCALAR"
        }
    ],
    "bufferViews" : [
        {
            "buffer" : 0,
            "byteLength" : 5688,
            "byteOffset" : 0
        },
        {
            "buffer" : 0,
            "byteLength" : 5688,
            "byteOffset" : 5688
        },
        {
            "buffer" : 0,
            "byteLength" : 3792,
            "byteOffset" : 11376
        },
        {
            "buffer" : 0,
            "byteLength" : 4152,
            "byteOffset" : 15168
        },
        {
            "buffer" : 0,
            "byteLength" : 548696,
            "byteOffset" : 19320
        },
        {
            "buffer" : 0,
            "byteLength" : 15744,
            "byteOffset" : 568016
        },
        {
            "buffer" : 0,
            "byteLength" : 15744,
            "byteOffset" : 583760
        },
        {
            "buffer" : 0,
            "byteLength" : 10496,
            "byteOffset" : 599504
        },
        {
            "buffer" : 0,
            "byteLength" : 3936,
            "byteOffset" : 610000
        },
        {
            "buffer" : 0,
            "byteLength" : 174477,
            "byteOffset" : 613936
        }
    ],
    "samplers" : [
        {
            "magFilter" : 9729,
            "minFilter" : 9987
        }
    ],
    "buffers" : [
        {
            "byteLength" : 788416,
            "uri" : "data:application/octet-stream;base64,"
        }
    ]
}
