{
    "asset" : {
        "generator" : "Khronos glTF Blender I/O v1.7.33",
        "version" : "2.0"
    },
    "scene" : 0,
    "scenes" : [
        {
            "name" : "Scene",
            "nodes" : [
                0,
                1,
                2
            ]
        }
    ],
    "nodes" : [
        {
            "mesh" : 0,
            "name" : "Mesa",
            "translation" : [
                0,
                1.2582833766937256,
                0
            ]
        },
        {
            "mesh" : 1,
            "name" : "tree",
            "rotation" : [
                0,
                0,
                -0.0699194073677063,
                0.997552752494812
            ],
            "scale" : [
                0.4131655991077423,
                0.4131655991077423,
                0.4131655991077423
            ],
            "translation" : [
                3.831817388534546,
                4.559433460235596,
                0
            ]
        },
        {
            "mesh" : 2,
            "name" : "tree.001",
            "rotation" : [
                -0.029878627508878708,
                -0.3490639626979828,
                0.07987943291664124,
                0.933210015296936
            ],
            "scale" : [
                0.24957336485385895,
                0.24957336485385895,
                0.24957337975502014
            ],
            "translation" : [
                3.5766732692718506,
                4.439529895782471,
                -0.20614992082118988
            ]
        }
    ],
    "materials" : [
        {
            "alphaCutoff" : 0.5,
            "alphaMode" : "MASK",
            "doubleSided" : true,
            "name" : "Material",
            "pbrMetallicRoughness" : {
                "baseColorTexture" : {
                    "index" : 0
                },
                "metallicFactor" : 0
            }
        },
        {
            "alphaCutoff" : 0.5,
            "alphaMode" : "MASK",
            "doubleSided" : true,
            "name" : "tree",
            "pbrMetallicRoughness" : {
                "baseColorTexture" : {
                    "index" : 1
                },
                "metallicFactor" : 0
            }
        }
    ],
    "meshes" : [
        {
            "name" : "Cube.001",
            "primitives" : [
                {
                    "attributes" : {
                        "POSITION" : 0,
                        "NORMAL" : 1,
                        "TEXCOORD_0" : 2
                    },
                    "indices" : 3,
                    "material" : 0
                }
            ]
        },
        {
            "name" : "Cube.002",
            "primitives" : [
                {
                    "attributes" : {
                        "POSITION" : 4,
                        "NORMAL" : 5,
                        "TEXCOORD_0" : 6
                    },
                    "indices" : 7,
                    "material" : 1
                }
            ]
        },
        {
            "name" : "Cube.003",
            "primitives" : [
                {
                    "attributes" : {
                        "POSITION" : 8,
                        "NORMAL" : 9,
                        "TEXCOORD_0" : 10
                    },
                    "indices" : 7,
                    "material" : 1
                }
            ]
        }
    ],
    "textures" : [
        {
            "sampler" : 0,
            "source" : 0
        },
        {
            "sampler" : 0,
            "source" : 1
        }
    ],
    "images" : [
        {
            "bufferView" : 4,
            "mimeType" : "image/png",
            "name" : "Bakerooo"
        },
        {
            "bufferView" : 9,
            "mimeType" : "image/png",
            "name" : "tree"
        }
    ],
    "accessors" : [
        {
            "bufferView" : 0,
            "componentType" : 5126,
            "count" : 507,
            "max" : [
                8.626676559448242,
                2.965653657913208,
                5.299055576324463
            ],
            "min" : [
                -6.977406978607178,
                -1.2596173286437988,
                -5.003222465515137
            ],
            "type" : "VEC3"
        },
        {
            "bufferView" : 1,
            "componentType" : 5126,
            "count" : 507,
            "type" : "VEC3"
        },
        {
            "bufferView" : 2,
            "componentType" : 5126,
            "count" : 507,
            "type" : "VEC2"
        },
        {
            "bufferView" : 3,
            "componentType" : 5123,
            "count" : 2088,
            "type" : "SCALAR"
        },
        {
            "bufferView" : 5,
            "componentType" : 5126,
            "count" : 16,
            "max" : [
                0.9999998807907104,
                1,
                0.9999999403953552
            ],
            "min" : [
                -1,
                -1,
                -1
            ],
            "type" : "VEC3"
        },
        {
            "bufferView" : 6,
            "componentType" : 5126,
            "count" : 16,
            "type" : "VEC3"
        },
        {
            "bufferView" : 7,
            "componentType" : 5126,
            "count" : 16,
            "type" : "VEC2"
        },
        {
            "bufferView" : 8,
            "componentType" : 5123,
            "count" : 24,
            "type" : "SCALAR"
        },
        {
            "bufferView" : 10,
            "componentType" : 5126,
            "count" : 16,
            "max" : [
                0.9999998807907104,
                1,
                0.9999999403953552
            ],
            "min" : [
                -1,
                -1,
                -1
            ],
            "type" : "VEC3"
        },
        {
            "bufferView" : 11,
            "componentType" : 5126,
            "count" : 16,
            "type" : "VEC3"
        },
        {
            "bufferView" : 12,
            "componentType" : 5126,
            "count" : 16,
            "type" : "VEC2"
        }
    ],
    "bufferViews" : [
        {
            "buffer" : 0,
            "byteLength" : 6084,
            "byteOffset" : 0
        },
        {
            "buffer" : 0,
            "byteLength" : 6084,
            "byteOffset" : 6084
        },
        {
            "buffer" : 0,
            "byteLength" : 4056,
            "byteOffset" : 12168
        },
        {
            "buffer" : 0,
            "byteLength" : 4176,
            "byteOffset" : 16224
        },
        {
            "buffer" : 0,
            "byteLength" : 406730,
            "byteOffset" : 20400
        },
        {
            "buffer" : 0,
            "byteLength" : 192,
            "byteOffset" : 427132
        },
        {
            "buffer" : 0,
            "byteLength" : 192,
            "byteOffset" : 427324
        },
        {
            "buffer" : 0,
            "byteLength" : 128,
            "byteOffset" : 427516
        },
        {
            "buffer" : 0,
            "byteLength" : 48,
            "byteOffset" : 427644
        },
        {
            "buffer" : 0,
            "byteLength" : 154897,
            "byteOffset" : 427692
        },
        {
            "buffer" : 0,
            "byteLength" : 192,
            "byteOffset" : 582592
        },
        {
            "buffer" : 0,
            "byteLength" : 192,
            "byteOffset" : 582784
        },
        {
            "buffer" : 0,
            "byteLength" : 128,
            "byteOffset" : 582976
        }
    ],
    "samplers" : [
        {
            "magFilter" : 9729,
            "minFilter" : 9987
        }
    ],
    "buffers" : [
        {
            "byteLength" : 583104,
            "uri" : "data:application/octet-stream;base64,"
        }
    ]
}
