{
    "asset" : {
        "generator" : "Khronos glTF Blender I/O v3.2.40",
        "version" : "2.0"
    },
    "scene" : 0,
    "scenes" : [
        {
            "name" : "Scene",
            "nodes" : [
                0,
                1,
                2
            ]
        }
    ],
    "nodes" : [
        {
            "mesh" : 0,
            "name" : "Shoe",
            "rotation" : [
                0,
                -0.8374719619750977,
                0,
                0.5464802980422974
            ]
        },
        {
            "mesh" : 1,
            "name" : "Laces",
            "rotation" : [
                0,
                -0.8374719619750977,
                0,
                0.5464802980422974
            ]
        },
        {
            "mesh" : 2,
            "name" : "Shadow",
            "rotation" : [
                0,
                -0.8374720811843872,
                0,
                0.5464802980422974
            ],
            "scale" : [
                3.255161762237549,
                3.255161762237549,
                3.255161762237549
            ]
        }
    ],
    "materials" : [
        {
            "doubleSided" : true,
            "name" : "Shoe",
            "pbrMetallicRoughness" : {
                "baseColorTexture" : {
                    "index" : 0
                },
                "metallicFactor" : 0
            }
        },
        {
            "doubleSided" : true,
            "name" : "Laces",
            "pbrMetallicRoughness" : {
                "baseColorTexture" : {
                    "index" : 1
                },
                "metallicFactor" : 0
            }
        },
        {
            "alphaCutoff" : 0.5,
            "alphaMode" : "MASK",
            "doubleSided" : true,
            "name" : "Shadow",
            "pbrMetallicRoughness" : {
                "baseColorTexture" : {
                    "index" : 2
                },
                "metallicFactor" : 0
            }
        }
    ],
    "meshes" : [
        {
            "name" : "Cube",
            "primitives" : [
                {
                    "attributes" : {
                        "POSITION" : 0,
                        "NORMAL" : 1,
                        "TEXCOORD_0" : 2
                    },
                    "indices" : 3,
                    "material" : 0
                }
            ]
        },
        {
            "name" : "BezierCurve",
            "primitives" : [
                {
                    "attributes" : {
                        "POSITION" : 4,
                        "NORMAL" : 5,
                        "TEXCOORD_0" : 6
                    },
                    "indices" : 7,
                    "material" : 1
                }
            ]
        },
        {
            "name" : "Plane",
            "primitives" : [
                {
                    "attributes" : {
                        "POSITION" : 8,
                        "NORMAL" : 9,
                        "TEXCOORD_0" : 10
                    },
                    "indices" : 11,
                    "material" : 2
                }
            ]
        }
    ],
    "textures" : [
        {
            "sampler" : 0,
            "source" : 0
        },
        {
            "sampler" : 0,
            "source" : 1
        },
        {
            "sampler" : 0,
            "source" : 2
        }
    ],
    "images" : [
        {
            "bufferView" : 4,
            "mimeType" : "image/png",
            "name" : "Shoe_Color_Final"
        },
        {
            "bufferView" : 9,
            "mimeType" : "image/png",
            "name" : "Laces"
        },
        {
            "bufferView" : 14,
            "mimeType" : "image/png",
            "name" : "Shadow"
        }
    ],
    "accessors" : [
        {
            "bufferView" : 0,
            "componentType" : 5126,
            "count" : 298,
            "max" : [
                0.8665585517883301,
                1.5847305059432983,
                2.480242967605591
            ],
            "min" : [
                -0.8734629154205322,
                -0.4394095540046692,
                -2.4790546894073486
            ],
            "type" : "VEC3"
        },
        {
            "bufferView" : 1,
            "componentType" : 5126,
            "count" : 298,
            "type" : "VEC3"
        },
        {
            "bufferView" : 2,
            "componentType" : 5126,
            "count" : 298,
            "type" : "VEC2"
        },
        {
            "bufferView" : 3,
            "componentType" : 5123,
            "count" : 822,
            "type" : "SCALAR"
        },
        {
            "bufferView" : 5,
            "componentType" : 5126,
            "count" : 327,
            "max" : [
                1.0384206771850586,
                1.455353021621704,
                0.7859206199645996
            ],
            "min" : [
                -0.8662376403808594,
                -0.1166151762008667,
                -1.4675058126449585
            ],
            "type" : "VEC3"
        },
        {
            "bufferView" : 6,
            "componentType" : 5126,
            "count" : 327,
            "type" : "VEC3"
        },
        {
            "bufferView" : 7,
            "componentType" : 5126,
            "count" : 327,
            "type" : "VEC2"
        },
        {
            "bufferView" : 8,
            "componentType" : 5123,
            "count" : 1248,
            "type" : "SCALAR"
        },
        {
            "bufferView" : 10,
            "componentType" : 5126,
            "count" : 4,
            "max" : [
                1,
                -0.13341455161571503,
                1
            ],
            "min" : [
                -1,
                -0.13341455161571503,
                -1
            ],
            "type" : "VEC3"
        },
        {
            "bufferView" : 11,
            "componentType" : 5126,
            "count" : 4,
            "type" : "VEC3"
        },
        {
            "bufferView" : 12,
            "componentType" : 5126,
            "count" : 4,
            "type" : "VEC2"
        },
        {
            "bufferView" : 13,
            "componentType" : 5123,
            "count" : 6,
            "type" : "SCALAR"
        }
    ],
    "bufferViews" : [
        {
            "buffer" : 0,
            "byteLength" : 3576,
            "byteOffset" : 0
        },
        {
            "buffer" : 0,
            "byteLength" : 3576,
            "byteOffset" : 3576
        },
        {
            "buffer" : 0,
            "byteLength" : 2384,
            "byteOffset" : 7152
        },
        {
            "buffer" : 0,
            "byteLength" : 1644,
            "byteOffset" : 9536
        },
        {
            "buffer" : 0,
            "byteLength" : 241476,
            "byteOffset" : 11180
        },
        {
            "buffer" : 0,
            "byteLength" : 3924,
            "byteOffset" : 252656
        },
        {
            "buffer" : 0,
            "byteLength" : 3924,
            "byteOffset" : 256580
        },
        {
            "buffer" : 0,
            "byteLength" : 2616,
            "byteOffset" : 260504
        },
        {
            "buffer" : 0,
            "byteLength" : 2496,
            "byteOffset" : 263120
        },
        {
            "buffer" : 0,
            "byteLength" : 9535,
            "byteOffset" : 265616
        },
        {
            "buffer" : 0,
            "byteLength" : 48,
            "byteOffset" : 275152
        },
        {
            "buffer" : 0,
            "byteLength" : 48,
            "byteOffset" : 275200
        },
        {
            "buffer" : 0,
            "byteLength" : 32,
            "byteOffset" : 275248
        },
        {
            "buffer" : 0,
            "byteLength" : 12,
            "byteOffset" : 275280
        },
        {
            "buffer" : 0,
            "byteLength" : 78701,
            "byteOffset" : 275292
        }
    ],
    "samplers" : [
        {
            "magFilter" : 9729,
            "minFilter" : 9987
        }
    ],
    "buffers" : [
        {
            "byteLength" : 353996,
            "uri" : "data:application/octet-stream;base64,"
        }
    ]
}
