<svg width="362" height="48" viewBox="0 0 362 48" fill="none" xmlns="http://www.w3.org/2000/svg">
<path d="M18.5763 33.6949L28.5424 47.0508H42.3051L30.4407 31.4576C35.9322 28.678 39.2542 23.5932 39.2542 17.1525C39.2542 7.18644 31.5932 0.949152 20.1356 0.949152H0V47.0508H11.4576V33.6949H18.5763ZM11.4576 23.3898V11.0508H19.9322C24.339 11.0508 27.7966 13.4237 27.7966 17.1525C27.7966 20.9492 24.339 23.3898 19.9322 23.3898H11.4576Z" fill="#3E3B44"/>
<path d="M58.0678 0.949152H46.6102V47.0508H58.0678V0.949152Z" fill="#3E3B44"/>
<path d="M108.58 0.949152H97.1907V26.9153L74.9534 0.949152H66.2076V47.0508H77.6652V21.7627L99.7669 47.0508H108.58V0.949152Z" fill="#3E3B44"/>
<path d="M163.775 21.1525H139.097V30.1695L152.317 30.3051C150.012 34.7119 145.944 37.3559 140.588 37.3559C132.453 37.3559 127.232 31.4576 127.232 24.2034C127.232 16.0678 132.588 10.5085 140.521 10.5085C144.656 10.5085 149.266 12 151.232 17.3559H163.3C161.334 6.37288 151.571 0 140.249 0C126.216 0 115.639 10.1017 115.639 24.4746C115.639 37.6949 125.741 48 140.182 48C146.622 48 151.436 45.5593 154.758 41.4915L155.232 47.0508H163.775V21.1525Z" fill="#3E3B44"/>
<path d="M205.005 23.322C209.005 21.8983 211.378 17.4915 211.378 13.2203C211.378 5.69491 205.548 0.949152 195.582 0.949152H172.802V47.0508H196.937C207.243 47.0508 213.412 41.8983 213.412 34.2373C213.412 29.2881 210.632 24.5424 205.005 23.322ZM184.26 10.3051H193.751C198.158 10.3051 200.463 11.8644 200.463 14.7797C200.463 17.7627 198.09 19.7288 193.751 19.7288H184.26V10.3051ZM184.26 37.5593V28.4746H195.649C199.853 28.4746 202.226 29.8983 202.226 32.7458C202.226 35.4576 200.124 37.5593 195.378 37.5593H184.26Z" fill="#3E3B44"/>
<path d="M249.348 39.1186L252.467 47.0508H264.671L245.145 0.677965H234.162L214.569 47.0508H226.772L229.823 39.1186H249.348ZM245.552 29.3559H233.62L239.586 14.0339L245.552 29.3559Z" fill="#3E3B44"/>
<path d="M311.158 0.949152H299.769V19.4576H280.989V0.949152H269.531V47.0508H280.989V29.7627H299.769V47.0508H311.158V0.949152Z" fill="#3E3B44"/>
<path d="M361.692 0.949152H350.302V26.9153L328.065 0.949152H319.319V47.0508H330.777V21.7627L352.879 47.0508H361.692V0.949152Z" fill="#3E3B44"/>
</svg>
